<?xml version="1.0" encoding="utf-8" standalone="no"?>
<!DOCTYPE svg PUBLIC "-//W3C//DTD SVG 1.1//EN"
  "http://www.w3.org/Graphics/SVG/1.1/DTD/svg11.dtd">
<!-- Created with matplotlib (https://matplotlib.org/) -->
<svg height="285.610625pt" version="1.1" viewBox="0 0 388.570312 285.610625" width="388.570312pt" xmlns="http://www.w3.org/2000/svg" xmlns:xlink="http://www.w3.org/1999/xlink">
 <defs>
  <style type="text/css">
*{stroke-linecap:butt;stroke-linejoin:round;}
  </style>
 </defs>
 <g id="figure_1">
  <g id="patch_1">
   <path d="M 0 285.610625 
L 388.570312 285.610625 
L 388.570312 0 
L 0 0 
z
" style="fill:none;"/>
  </g>
  <g id="axes_1">
   <g id="patch_2">
    <path d="M 46.570313 253.44 
L 381.370313 253.44 
L 381.370313 36 
L 46.570313 36 
z
" style="fill:#ffffff;"/>
   </g>
   <g id="matplotlib.axis_1">
    <g id="xtick_1">
     <g id="line2d_1">
      <defs>
       <path d="M 0 0 
L 0 3.5 
" id="mb0116c0f90" style="stroke:#000000;stroke-width:0.8;"/>
      </defs>
      <g>
       <use style="stroke:#000000;stroke-width:0.8;" x="130.270313" xlink:href="#mb0116c0f90" y="253.44"/>
      </g>
     </g>
     <g id="text_1">
      <!-- Mit Ausreißern  -->
      <defs>
       <path d="M 4.09375 0 
L 4.09375 62.296875 
L 9.59375 62.296875 
L 25 31.796875 
L 40.703125 62.40625 
L 46 62.40625 
L 46 0 
L 39.40625 0 
L 39.40625 47 
L 25.90625 21.90625 
L 23.203125 21.90625 
L 10.59375 46.703125 
L 10.59375 0 
z
" id="Inconsolata-Regular-77"/>
       <path d="M 10 0 
L 10 5.796875 
L 21.703125 5.796875 
L 21.703125 39.90625 
L 10.59375 39.90625 
L 10.59375 45.703125 
L 28.90625 45.703125 
L 28.90625 5.796875 
L 39.59375 5.796875 
L 39.59375 0 
z
M 24.90625 55.296875 
Q 22.796875 55.296875 21.296875 56.796875 
Q 19.796875 58.296875 19.796875 60.40625 
Q 19.796875 62.59375 21.25 64.09375 
Q 22.703125 65.59375 24.90625 65.59375 
Q 27 65.59375 28.546875 64.046875 
Q 30.09375 62.5 30.09375 60.40625 
Q 30.09375 58.296875 28.546875 56.796875 
Q 27 55.296875 24.90625 55.296875 
z
" id="Inconsolata-Regular-105"/>
       <path d="M 29.90625 -0.703125 
Q 25.5 -0.703125 22.703125 0.796875 
Q 19.90625 2.296875 18.40625 5.4375 
Q 16.90625 8.59375 16.453125 13.390625 
Q 16 18.203125 16.203125 24.796875 
L 17.40625 57.40625 
L 24.90625 58.296875 
L 25.90625 58.40625 
L 26 57.703125 
Q 25.5 57 25.140625 56.296875 
Q 24.796875 55.59375 24.59375 53.90625 
L 23.703125 42.59375 
L 24 40.796875 
L 23.296875 24.296875 
Q 23 16.703125 23.703125 12.546875 
Q 24.40625 8.40625 26.203125 6.84375 
Q 28 5.296875 31 5.296875 
Q 34.296875 5.296875 36.84375 6.59375 
Q 39.40625 7.90625 42.203125 9.90625 
L 44.40625 4.203125 
Q 41 1.703125 37.390625 0.5 
Q 33.796875 -0.703125 29.90625 -0.703125 
z
M 7 45.703125 
L 39.90625 45.703125 
L 39.90625 39.796875 
L 7 39.796875 
z
" id="Inconsolata-Regular-116"/>
       <path id="Inconsolata-Regular-32"/>
       <path d="M 35.703125 18.203125 
L 13.09375 18.203125 
L 14.5 23.59375 
L 34.09375 23.59375 
z
M 24.90625 47.40625 
L 8.5 0 
L 1.59375 0 
L 24.59375 63.40625 
L 25.40625 63.40625 
L 48.40625 0 
L 41.203125 0 
z
" id="Inconsolata-Regular-65"/>
       <path d="M 22.09375 -1.09375 
Q 19.40625 -1.09375 17 -0.296875 
Q 14.59375 0.5 12.640625 2.140625 
Q 10.703125 3.796875 9.296875 6.296875 
Q 7.90625 8.796875 7.15625 12.296875 
Q 6.40625 15.796875 6.40625 20.203125 
L 6.5 45.703125 
L 13.5 45.703125 
L 13.5 20.203125 
Q 13.5 15.90625 14.296875 12.90625 
Q 15.09375 9.90625 16.546875 8.09375 
Q 18 6.296875 19.890625 5.5 
Q 21.796875 4.703125 23.90625 4.703125 
Q 26.296875 4.703125 28.5 5.640625 
Q 30.703125 6.59375 32.453125 8.5 
Q 34.203125 10.40625 35.203125 13.40625 
Q 36.203125 16.40625 36.203125 20.5 
L 36.203125 45.703125 
L 43.203125 45.703125 
L 43.203125 7.09375 
Q 43.203125 5.296875 43.34375 3.546875 
Q 43.5 1.796875 44.203125 0 
L 37.296875 0 
Q 36.796875 1.203125 36.59375 2.34375 
Q 36.40625 3.5 36.34375 4.703125 
Q 36.296875 5.90625 36.296875 7 
Q 35.203125 5.09375 33.703125 3.59375 
Q 32.203125 2.09375 30.34375 1.046875 
Q 28.5 0 26.453125 -0.546875 
Q 24.40625 -1.09375 22.09375 -1.09375 
z
" id="Inconsolata-Regular-117"/>
       <path d="M 25.09375 -1 
Q 21.296875 -1 17.84375 -0.203125 
Q 14.40625 0.59375 11.34375 2.1875 
Q 8.296875 3.796875 5.703125 6.203125 
L 9.703125 13 
L 10.296875 13.90625 
L 10.90625 13.5 
Q 11.09375 12.703125 11.34375 11.84375 
Q 11.59375 11 12.703125 9.796875 
Q 14.796875 7.703125 17.75 6.34375 
Q 20.703125 5 25.296875 5 
Q 29 5 31.546875 5.890625 
Q 34.09375 6.796875 35.5 8.4375 
Q 36.90625 10.09375 36.90625 12.296875 
Q 36.90625 13.796875 36.296875 14.9375 
Q 35.703125 16.09375 34.34375 17.09375 
Q 33 18.09375 30.796875 19.09375 
Q 28.59375 20.09375 25.40625 21.09375 
Q 20.203125 22.59375 16.296875 24.59375 
Q 12.40625 26.59375 10.296875 29.25 
Q 8.203125 31.90625 8.203125 35.296875 
Q 8.203125 38.796875 10.09375 41.34375 
Q 12 43.90625 15.75 45.34375 
Q 19.5 46.796875 25 46.796875 
Q 28.203125 46.796875 30.796875 46.34375 
Q 33.40625 45.90625 35.59375 45 
Q 37.796875 44.09375 39.640625 42.75 
Q 41.5 41.40625 43.203125 39.59375 
L 39.09375 34.59375 
L 38.40625 33.796875 
L 37.90625 34.296875 
Q 37.796875 35.09375 37.4375 35.84375 
Q 37.09375 36.59375 36 37.703125 
Q 33.703125 39.5 30.796875 40.453125 
Q 27.90625 41.40625 25.203125 41.40625 
Q 21.203125 41.40625 18.296875 40 
Q 15.40625 38.59375 15.40625 35.703125 
Q 15.40625 34.203125 16.453125 32.75 
Q 17.5 31.296875 20.296875 29.84375 
Q 23.09375 28.40625 28.296875 26.90625 
Q 34 25.09375 37.453125 23.25 
Q 40.90625 21.40625 42.453125 19 
Q 44 16.59375 44 13.296875 
Q 44 9.5 41.953125 6.203125 
Q 39.90625 2.90625 35.703125 0.953125 
Q 31.5 -1 25.09375 -1 
z
" id="Inconsolata-Regular-115"/>
       <path d="M 11.90625 45.703125 
L 19.40625 45.703125 
L 19.09375 32.40625 
L 18.203125 33.90625 
Q 18.796875 37 20.296875 39.390625 
Q 21.796875 41.796875 23.890625 43.4375 
Q 26 45.09375 28.5 45.9375 
Q 31 46.796875 33.703125 46.796875 
Q 37.296875 46.796875 40.34375 45.546875 
Q 43.40625 44.296875 45.796875 41.796875 
L 42.59375 36.203125 
L 42.203125 35.296875 
L 41.5 35.703125 
Q 41.296875 36.5 40.890625 37.203125 
Q 40.5 37.90625 39.203125 38.90625 
Q 37.59375 39.90625 36.25 40.25 
Q 34.90625 40.59375 33.203125 40.59375 
Q 30.703125 40.59375 28.203125 39.640625 
Q 25.703125 38.703125 23.640625 36.703125 
Q 21.59375 34.703125 20.390625 31.59375 
Q 19.203125 28.5 19.203125 24.203125 
L 19.203125 -0.09375 
L 11.90625 -0.09375 
z
" id="Inconsolata-Regular-114"/>
       <path d="M 27.203125 -1 
Q 22.203125 -1 18.09375 0.546875 
Q 14 2.09375 11.046875 5.09375 
Q 8.09375 8.09375 6.5 12.546875 
Q 4.90625 17 4.90625 22.703125 
Q 4.90625 28.5 6.546875 33 
Q 8.203125 37.5 11.046875 40.546875 
Q 13.90625 43.59375 17.75 45.1875 
Q 21.59375 46.796875 25.90625 46.796875 
Q 29.796875 46.796875 33.1875 45.5 
Q 36.59375 44.203125 39.09375 41.546875 
Q 41.59375 38.90625 43.046875 34.796875 
Q 44.5 30.703125 44.5 25.09375 
Q 44.5 24.296875 44.453125 23.4375 
Q 44.40625 22.59375 44.296875 21.796875 
L 11.796875 21.796875 
Q 12 17.40625 13.296875 14.15625 
Q 14.59375 10.90625 16.6875 8.84375 
Q 18.796875 6.796875 21.546875 5.796875 
Q 24.296875 4.796875 27.40625 4.796875 
Q 29.796875 4.796875 31.890625 5.34375 
Q 34 5.90625 35.84375 7.046875 
Q 37.703125 8.203125 39.203125 9.90625 
L 43.203125 6 
Q 41.296875 3.703125 38.84375 2.09375 
Q 36.40625 0.5 33.5 -0.25 
Q 30.59375 -1 27.203125 -1 
z
M 12.09375 27.40625 
L 37.203125 27.40625 
Q 37.203125 30.59375 36.34375 33.140625 
Q 35.5 35.703125 33.953125 37.546875 
Q 32.40625 39.40625 30.25 40.34375 
Q 28.09375 41.296875 25.40625 41.296875 
Q 23 41.296875 20.84375 40.5 
Q 18.703125 39.703125 16.890625 37.953125 
Q 15.09375 36.203125 13.84375 33.59375 
Q 12.59375 31 12.09375 27.40625 
z
" id="Inconsolata-Regular-101"/>
       <path d="M 28.09375 -1 
Q 25.203125 -1 22.59375 -0.25 
Q 20 0.5 17.703125 2.09375 
L 21.203125 7.703125 
Q 22.703125 6.5 24.5 5.890625 
Q 26.296875 5.296875 28.5 5.296875 
Q 30.59375 5.296875 32.640625 6.34375 
Q 34.703125 7.40625 36.296875 9.296875 
Q 37.90625 11.203125 38.84375 13.75 
Q 39.796875 16.296875 39.796875 19.296875 
Q 39.796875 22 38.890625 24.390625 
Q 38 26.796875 36.09375 28.546875 
Q 34.203125 30.296875 31.296875 31.296875 
Q 28.40625 32.296875 24.40625 32.296875 
L 21.40625 32.296875 
L 21.40625 38 
L 25 38 
Q 26.5 38 27.953125 38.453125 
Q 29.40625 38.90625 30.703125 39.796875 
Q 32 40.703125 33 42 
Q 34 43.296875 34.59375 45.046875 
Q 35.203125 46.796875 35.203125 49 
Q 35.203125 51.59375 34.34375 53.75 
Q 33.5 55.90625 32 57.59375 
Q 30.5 59.296875 28.5 60.1875 
Q 26.5 61.09375 24.09375 61.09375 
Q 20.296875 61.09375 17.640625 58.75 
Q 15 56.40625 13.640625 52.25 
Q 12.296875 48.09375 12.296875 42.5 
L 12.296875 0 
L 5.5 0 
L 5.5 42.296875 
Q 5.5 50.59375 7.75 56.046875 
Q 10 61.5 13.953125 64.203125 
Q 17.90625 66.90625 23.09375 66.90625 
Q 28.5 66.90625 32.75 64.453125 
Q 37 62 39.5 58 
Q 42 54 42 49.296875 
Q 42 46.5 41.046875 43.890625 
Q 40.09375 41.296875 38.34375 39.25 
Q 36.59375 37.203125 34.09375 35.90625 
Q 37 35 39.25 33.296875 
Q 41.5 31.59375 43.09375 29.25 
Q 44.703125 26.90625 45.546875 24.09375 
Q 46.40625 21.296875 46.40625 18.09375 
Q 46.40625 12.796875 44.15625 8.4375 
Q 41.90625 4.09375 37.796875 1.546875 
Q 33.703125 -1 28.09375 -1 
z
" id="Inconsolata-Regular-223"/>
       <path d="M 7.203125 0 
L 7.203125 45.703125 
L 14.203125 45.703125 
L 14.203125 37.59375 
Q 16 40.40625 18.390625 42.453125 
Q 20.796875 44.5 23.6875 45.640625 
Q 26.59375 46.796875 29.703125 46.796875 
Q 33.5 46.796875 36.5 44.890625 
Q 39.5 43 41.296875 38.796875 
Q 43.09375 34.59375 43.09375 27.703125 
L 43.09375 0 
L 36.09375 0 
L 36.09375 27.5 
Q 36.09375 32.296875 35 35.140625 
Q 33.90625 38 32 39.25 
Q 30.09375 40.5 27.703125 40.5 
Q 25.40625 40.5 23.046875 39.5 
Q 20.703125 38.5 18.703125 36.640625 
Q 16.703125 34.796875 15.453125 32.1875 
Q 14.203125 29.59375 14.203125 26.296875 
L 14.203125 0 
z
" id="Inconsolata-Regular-110"/>
      </defs>
      <g transform="translate(92.770313 267.09)scale(0.1 -0.1)">
       <use xlink:href="#Inconsolata-Regular-77"/>
       <use x="49.999985" xlink:href="#Inconsolata-Regular-105"/>
       <use x="99.999969" xlink:href="#Inconsolata-Regular-116"/>
       <use x="149.999954" xlink:href="#Inconsolata-Regular-32"/>
       <use x="199.999939" xlink:href="#Inconsolata-Regular-65"/>
       <use x="249.999924" xlink:href="#Inconsolata-Regular-117"/>
       <use x="299.999908" xlink:href="#Inconsolata-Regular-115"/>
       <use x="349.999893" xlink:href="#Inconsolata-Regular-114"/>
       <use x="399.999878" xlink:href="#Inconsolata-Regular-101"/>
       <use x="449.999863" xlink:href="#Inconsolata-Regular-105"/>
       <use x="499.999847" xlink:href="#Inconsolata-Regular-223"/>
       <use x="549.999832" xlink:href="#Inconsolata-Regular-101"/>
       <use x="599.999817" xlink:href="#Inconsolata-Regular-114"/>
       <use x="649.999802" xlink:href="#Inconsolata-Regular-110"/>
       <use x="699.999786" xlink:href="#Inconsolata-Regular-32"/>
      </g>
      <!--  n = 4062 -->
      <defs>
       <path d="M 4.5 38.90625 
L 4.5 45 
L 45.59375 45 
L 45.59375 38.90625 
z
M 4.5 18.203125 
L 4.5 24.296875 
L 45.59375 24.296875 
L 45.59375 18.203125 
z
" id="Inconsolata-Regular-61"/>
       <path d="M 31.796875 0 
L 31.796875 15.296875 
L 4.796875 15.296875 
L 4.796875 20.40625 
L 33.296875 62.40625 
L 39.203125 62.40625 
L 39.203125 21.09375 
L 47.203125 21.09375 
L 47.203125 15.203125 
L 39.203125 15.203125 
L 39.203125 0 
z
M 12.90625 21.203125 
L 31.796875 21.203125 
L 31.796875 49.796875 
z
" id="Inconsolata-Regular-52"/>
       <path d="M 10.703125 15.40625 
L 37.40625 49.703125 
L 39.703125 45 
L 13 11.09375 
z
M 25 -1.09375 
Q 18.796875 -1.09375 14.5 2.59375 
Q 10.203125 6.296875 7.953125 13.4375 
Q 5.703125 20.59375 5.703125 30.796875 
Q 5.703125 40.703125 7.953125 47.84375 
Q 10.203125 55 14.5 58.84375 
Q 18.796875 62.703125 25 62.703125 
Q 31.203125 62.703125 35.5 58.84375 
Q 39.796875 55 42.046875 47.84375 
Q 44.296875 40.703125 44.296875 30.796875 
Q 44.296875 20.59375 42.046875 13.4375 
Q 39.796875 6.296875 35.5 2.59375 
Q 31.203125 -1.09375 25 -1.09375 
z
M 25 5 
Q 28.796875 5 31.5 8 
Q 34.203125 11 35.640625 16.75 
Q 37.09375 22.5 37.09375 30.796875 
Q 37.09375 38.703125 35.640625 44.453125 
Q 34.203125 50.203125 31.5 53.390625 
Q 28.796875 56.59375 25 56.59375 
Q 21.203125 56.59375 18.5 53.390625 
Q 15.796875 50.203125 14.34375 44.453125 
Q 12.90625 38.703125 12.90625 30.796875 
Q 12.90625 22.5 14.34375 16.75 
Q 15.796875 11 18.5 8 
Q 21.203125 5 25 5 
z
" id="Inconsolata-Regular-48"/>
       <path d="M 26.09375 -1 
Q 19.90625 -1 15.546875 2.59375 
Q 11.203125 6.203125 8.953125 12.796875 
Q 6.703125 19.40625 6.703125 28.40625 
Q 6.703125 39.59375 9.453125 47.296875 
Q 12.203125 55 17.140625 59 
Q 22.09375 63 28.703125 63 
Q 32.59375 63 36.046875 61.59375 
Q 39.5 60.203125 42.40625 57.296875 
L 38 52.296875 
L 37.296875 51.5 
L 36.796875 52 
Q 36.703125 52.796875 36.34375 53.5 
Q 36 54.203125 34.703125 55.296875 
Q 33.90625 55.90625 33 56.203125 
Q 32.09375 56.5 31.09375 56.640625 
Q 30.09375 56.796875 28.90625 56.796875 
Q 27.296875 56.796875 25.296875 56.1875 
Q 23.296875 55.59375 21.296875 54.09375 
Q 19.296875 52.59375 17.546875 49.890625 
Q 15.796875 47.203125 14.75 42.953125 
Q 13.703125 38.703125 13.59375 32.703125 
Q 15 35.09375 17.09375 36.75 
Q 19.203125 38.40625 21.703125 39.296875 
Q 24.203125 40.203125 26.796875 40.203125 
Q 30.296875 40.203125 33.390625 38.75 
Q 36.5 37.296875 38.84375 34.59375 
Q 41.203125 31.90625 42.546875 28.15625 
Q 43.90625 24.40625 43.90625 19.796875 
Q 43.90625 13.59375 41.5 8.890625 
Q 39.09375 4.203125 35.09375 1.59375 
Q 31.09375 -1 26.09375 -1 
z
M 26.40625 5.203125 
Q 28.5 5.203125 30.453125 6.140625 
Q 32.40625 7.09375 33.90625 8.890625 
Q 35.40625 10.703125 36.25 13.390625 
Q 37.09375 16.09375 37.09375 19.703125 
Q 37.09375 23.5 36.140625 26.203125 
Q 35.203125 28.90625 33.59375 30.65625 
Q 32 32.40625 30.046875 33.25 
Q 28.09375 34.09375 26.203125 34.09375 
Q 24.40625 34.09375 22.65625 33.4375 
Q 20.90625 32.796875 19.296875 31.640625 
Q 17.703125 30.5 16.34375 29 
Q 15 27.5 14 25.703125 
Q 13.59375 22.296875 14.25 18.6875 
Q 14.90625 15.09375 16.546875 12.046875 
Q 18.203125 9 20.703125 7.09375 
Q 23.203125 5.203125 26.40625 5.203125 
z
" id="Inconsolata-Regular-54"/>
       <path d="M 7.296875 5.59375 
Q 12.703125 11.09375 17.203125 15.59375 
Q 21.703125 20.09375 25.25 23.9375 
Q 28.796875 27.796875 31.296875 31.25 
Q 33.796875 34.703125 35.09375 38.046875 
Q 36.40625 41.40625 36.40625 45.09375 
Q 36.40625 48.296875 35.59375 50.5 
Q 34.796875 52.703125 33.34375 54.046875 
Q 31.90625 55.40625 29.953125 56 
Q 28 56.59375 25.796875 56.59375 
Q 23.40625 56.59375 21.203125 55.890625 
Q 19 55.203125 17 53.84375 
Q 15 52.5 13.296875 50.296875 
Q 12.40625 48.90625 12.203125 48.15625 
Q 12 47.40625 12.09375 46.59375 
L 11.703125 46.09375 
L 10.90625 46.59375 
L 5.796875 50.59375 
Q 7.796875 54.5 10.796875 57.203125 
Q 13.796875 59.90625 17.59375 61.296875 
Q 21.40625 62.703125 25.703125 62.703125 
Q 31 62.703125 35 60.546875 
Q 39 58.40625 41.296875 54.40625 
Q 43.59375 50.40625 43.59375 44.90625 
Q 43.59375 40.796875 42.09375 36.9375 
Q 40.59375 33.09375 38 29.390625 
Q 35.40625 25.703125 31.90625 22 
Q 28.40625 18.296875 24.453125 14.34375 
Q 20.5 10.40625 16.296875 6.09375 
L 39.5 6.09375 
Q 41.203125 6.09375 41.890625 6.296875 
Q 42.59375 6.5 43.203125 7.09375 
L 43.90625 7.09375 
L 43.90625 6.09375 
L 43.90625 0 
L 7.296875 0 
z
" id="Inconsolata-Regular-50"/>
      </defs>
      <g transform="translate(107.770313 276.740312)scale(0.1 -0.1)">
       <use xlink:href="#Inconsolata-Regular-32"/>
       <use x="49.999985" xlink:href="#Inconsolata-Regular-110"/>
       <use x="99.999969" xlink:href="#Inconsolata-Regular-32"/>
       <use x="149.999954" xlink:href="#Inconsolata-Regular-61"/>
       <use x="199.999939" xlink:href="#Inconsolata-Regular-32"/>
       <use x="249.999924" xlink:href="#Inconsolata-Regular-52"/>
       <use x="299.999908" xlink:href="#Inconsolata-Regular-48"/>
       <use x="349.999893" xlink:href="#Inconsolata-Regular-54"/>
       <use x="399.999878" xlink:href="#Inconsolata-Regular-50"/>
      </g>
     </g>
    </g>
    <g id="xtick_2">
     <g id="line2d_2">
      <g>
       <use style="stroke:#000000;stroke-width:0.8;" x="297.670313" xlink:href="#mb0116c0f90" y="253.44"/>
      </g>
     </g>
     <g id="text_2">
      <!-- Ohne Ausreißer  -->
      <defs>
       <path d="M 25 -1.09375 
Q 17.90625 -1.09375 12.90625 2.59375 
Q 7.90625 6.296875 5.296875 13.4375 
Q 2.703125 20.59375 2.703125 30.796875 
Q 2.703125 40.703125 5.296875 47.84375 
Q 7.90625 55 12.90625 58.84375 
Q 17.90625 62.703125 25 62.703125 
Q 32.203125 62.703125 37.140625 58.84375 
Q 42.09375 55 44.6875 47.84375 
Q 47.296875 40.703125 47.296875 30.796875 
Q 47.296875 20.59375 44.6875 13.4375 
Q 42.09375 6.296875 37.140625 2.59375 
Q 32.203125 -1.09375 25 -1.09375 
z
M 25 5 
Q 29.796875 5 33.140625 8 
Q 36.5 11 38.296875 16.75 
Q 40.09375 22.5 40.09375 30.796875 
Q 40.09375 38.703125 38.296875 44.453125 
Q 36.5 50.203125 33.140625 53.390625 
Q 29.796875 56.59375 25 56.59375 
Q 20.296875 56.59375 16.890625 53.390625 
Q 13.5 50.203125 11.703125 44.453125 
Q 9.90625 38.703125 9.90625 30.796875 
Q 9.90625 22.5 11.703125 16.75 
Q 13.5 11 16.890625 8 
Q 20.296875 5 25 5 
z
" id="Inconsolata-Regular-79"/>
       <path d="M 7.296875 66.5 
L 14.203125 66.5 
L 15.203125 66.5 
L 15.203125 65.796875 
Q 14.59375 65.203125 14.4375 64.5 
Q 14.296875 63.796875 14.296875 62.09375 
L 14.296875 37.59375 
Q 16.09375 40.40625 18.546875 42.453125 
Q 21 44.5 23.75 45.640625 
Q 26.5 46.796875 29.296875 46.796875 
Q 33.40625 46.796875 36.546875 44.890625 
Q 39.703125 43 41.453125 38.796875 
Q 43.203125 34.59375 43.203125 27.703125 
L 43.203125 0 
L 36.203125 0 
L 36.203125 27.5 
Q 36.203125 32.296875 35.09375 35.140625 
Q 34 38 32.09375 39.25 
Q 30.203125 40.5 27.796875 40.5 
Q 26 40.5 24.09375 39.890625 
Q 22.203125 39.296875 20.453125 38.09375 
Q 18.703125 36.90625 17.296875 35.15625 
Q 15.90625 33.40625 15.09375 31.203125 
Q 14.296875 29 14.296875 26.296875 
L 14.296875 0 
L 7.296875 0 
z
" id="Inconsolata-Regular-104"/>
      </defs>
      <g transform="translate(260.170313 267.09)scale(0.1 -0.1)">
       <use xlink:href="#Inconsolata-Regular-79"/>
       <use x="49.999985" xlink:href="#Inconsolata-Regular-104"/>
       <use x="99.999969" xlink:href="#Inconsolata-Regular-110"/>
       <use x="149.999954" xlink:href="#Inconsolata-Regular-101"/>
       <use x="199.999939" xlink:href="#Inconsolata-Regular-32"/>
       <use x="249.999924" xlink:href="#Inconsolata-Regular-65"/>
       <use x="299.999908" xlink:href="#Inconsolata-Regular-117"/>
       <use x="349.999893" xlink:href="#Inconsolata-Regular-115"/>
       <use x="399.999878" xlink:href="#Inconsolata-Regular-114"/>
       <use x="449.999863" xlink:href="#Inconsolata-Regular-101"/>
       <use x="499.999847" xlink:href="#Inconsolata-Regular-105"/>
       <use x="549.999832" xlink:href="#Inconsolata-Regular-223"/>
       <use x="599.999817" xlink:href="#Inconsolata-Regular-101"/>
       <use x="649.999802" xlink:href="#Inconsolata-Regular-114"/>
       <use x="699.999786" xlink:href="#Inconsolata-Regular-32"/>
      </g>
      <!--  n = 3771 -->
      <defs>
       <path d="M 24 -1.09375 
Q 19.09375 -1.09375 14.59375 0.703125 
Q 10.09375 2.5 6.90625 6 
L 11.5 11.5 
L 12.203125 12.296875 
L 12.703125 11.796875 
Q 12.796875 11 13.09375 10.25 
Q 13.40625 9.5 14.5 8.296875 
Q 16.203125 6.796875 18.390625 5.84375 
Q 20.59375 4.90625 23.703125 4.90625 
Q 27.703125 4.90625 30.296875 6.5 
Q 32.90625 8.09375 34.203125 10.9375 
Q 35.5 13.796875 35.5 17.40625 
Q 35.5 21 34.25 23.5 
Q 33 26 30.703125 27.453125 
Q 28.40625 28.90625 25.203125 29.453125 
Q 22 30 18 29.59375 
L 18 35.203125 
Q 22.796875 35.203125 25.84375 36.203125 
Q 28.90625 37.203125 30.546875 38.890625 
Q 32.203125 40.59375 32.796875 42.84375 
Q 33.40625 45.09375 33.40625 47.5 
Q 33.40625 49.59375 32.75 51.296875 
Q 32.09375 53 30.9375 54.203125 
Q 29.796875 55.40625 28.140625 56.046875 
Q 26.5 56.703125 24.5 56.703125 
Q 22.5 56.703125 20.546875 56.25 
Q 18.59375 55.796875 16.75 54.796875 
Q 14.90625 53.796875 13.09375 52.09375 
L 8.90625 56.296875 
Q 12.296875 59.796875 16.34375 61.25 
Q 20.40625 62.703125 24.40625 62.703125 
Q 29.5 62.703125 33.09375 60.75 
Q 36.703125 58.796875 38.640625 55.296875 
Q 40.59375 51.796875 40.59375 47.203125 
Q 40.59375 44 39.546875 41.140625 
Q 38.5 38.296875 36.296875 36.1875 
Q 34.09375 34.09375 30.796875 33 
Q 34.296875 31.90625 37 29.75 
Q 39.703125 27.59375 41.203125 24.5 
Q 42.703125 21.40625 42.703125 17.09375 
Q 42.703125 12.203125 40.546875 8.046875 
Q 38.40625 3.90625 34.25 1.40625 
Q 30.09375 -1.09375 24 -1.09375 
z
" id="Inconsolata-Regular-51"/>
       <path d="M 15.5 0 
Q 18.40625 9.59375 21.453125 18.84375 
Q 24.5 28.09375 27.75 37.296875 
Q 31 46.5 34.5 55.703125 
L 7.90625 55.703125 
L 7.90625 62.296875 
L 43.203125 62.296875 
L 43.203125 58.40625 
Q 40.40625 51.203125 37.703125 44 
Q 35 36.796875 32.5 29.5 
Q 30 22.203125 27.75 14.84375 
Q 25.5 7.5 23.40625 0 
z
" id="Inconsolata-Regular-55"/>
       <path d="M 23 0 
L 23 53.703125 
L 10.40625 50 
L 8.796875 53.90625 
L 25.09375 62.40625 
L 30 62.40625 
L 30 0 
z
" id="Inconsolata-Regular-49"/>
      </defs>
      <g transform="translate(275.170313 276.740312)scale(0.1 -0.1)">
       <use xlink:href="#Inconsolata-Regular-32"/>
       <use x="49.999985" xlink:href="#Inconsolata-Regular-110"/>
       <use x="99.999969" xlink:href="#Inconsolata-Regular-32"/>
       <use x="149.999954" xlink:href="#Inconsolata-Regular-61"/>
       <use x="199.999939" xlink:href="#Inconsolata-Regular-32"/>
       <use x="249.999924" xlink:href="#Inconsolata-Regular-51"/>
       <use x="299.999908" xlink:href="#Inconsolata-Regular-55"/>
       <use x="349.999893" xlink:href="#Inconsolata-Regular-55"/>
       <use x="399.999878" xlink:href="#Inconsolata-Regular-49"/>
      </g>
     </g>
    </g>
   </g>
   <g id="matplotlib.axis_2">
    <g id="ytick_1">
     <g id="line2d_3">
      <path clip-path="url(#pc761920f66)" d="M 46.570313 244.088241 
L 381.370313 244.088241 
" style="fill:none;stroke:#b0b0b0;stroke-linecap:square;stroke-width:0.8;"/>
     </g>
     <g id="line2d_4">
      <defs>
       <path d="M 0 0 
L -3.5 0 
" id="m5d7421d42d" style="stroke:#000000;stroke-width:0.8;"/>
      </defs>
      <g>
       <use style="stroke:#000000;stroke-width:0.8;" x="46.570313" xlink:href="#m5d7421d42d" y="244.088241"/>
      </g>
     </g>
     <g id="text_3">
      <!-- 0 -->
      <g transform="translate(34.570313 247.413241)scale(0.1 -0.1)">
       <use xlink:href="#Inconsolata-Regular-48"/>
      </g>
     </g>
    </g>
    <g id="ytick_2">
     <g id="line2d_5">
      <path clip-path="url(#pc761920f66)" d="M 46.570313 219.025974 
L 381.370313 219.025974 
" style="fill:none;stroke:#b0b0b0;stroke-linecap:square;stroke-width:0.8;"/>
     </g>
     <g id="line2d_6">
      <g>
       <use style="stroke:#000000;stroke-width:0.8;" x="46.570313" xlink:href="#m5d7421d42d" y="219.025974"/>
      </g>
     </g>
     <g id="text_4">
      <!-- 1000 -->
      <g transform="translate(19.570313 222.350974)scale(0.1 -0.1)">
       <use xlink:href="#Inconsolata-Regular-49"/>
       <use x="49.999985" xlink:href="#Inconsolata-Regular-48"/>
       <use x="99.999969" xlink:href="#Inconsolata-Regular-48"/>
       <use x="149.999954" xlink:href="#Inconsolata-Regular-48"/>
      </g>
     </g>
    </g>
    <g id="ytick_3">
     <g id="line2d_7">
      <path clip-path="url(#pc761920f66)" d="M 46.570313 193.963707 
L 381.370313 193.963707 
" style="fill:none;stroke:#b0b0b0;stroke-linecap:square;stroke-width:0.8;"/>
     </g>
     <g id="line2d_8">
      <g>
       <use style="stroke:#000000;stroke-width:0.8;" x="46.570313" xlink:href="#m5d7421d42d" y="193.963707"/>
      </g>
     </g>
     <g id="text_5">
      <!-- 2000 -->
      <g transform="translate(19.570313 197.288707)scale(0.1 -0.1)">
       <use xlink:href="#Inconsolata-Regular-50"/>
       <use x="49.999985" xlink:href="#Inconsolata-Regular-48"/>
       <use x="99.999969" xlink:href="#Inconsolata-Regular-48"/>
       <use x="149.999954" xlink:href="#Inconsolata-Regular-48"/>
      </g>
     </g>
    </g>
    <g id="ytick_4">
     <g id="line2d_9">
      <path clip-path="url(#pc761920f66)" d="M 46.570313 168.90144 
L 381.370313 168.90144 
" style="fill:none;stroke:#b0b0b0;stroke-linecap:square;stroke-width:0.8;"/>
     </g>
     <g id="line2d_10">
      <g>
       <use style="stroke:#000000;stroke-width:0.8;" x="46.570313" xlink:href="#m5d7421d42d" y="168.90144"/>
      </g>
     </g>
     <g id="text_6">
      <!-- 3000 -->
      <g transform="translate(19.570313 172.22644)scale(0.1 -0.1)">
       <use xlink:href="#Inconsolata-Regular-51"/>
       <use x="49.999985" xlink:href="#Inconsolata-Regular-48"/>
       <use x="99.999969" xlink:href="#Inconsolata-Regular-48"/>
       <use x="149.999954" xlink:href="#Inconsolata-Regular-48"/>
      </g>
     </g>
    </g>
    <g id="ytick_5">
     <g id="line2d_11">
      <path clip-path="url(#pc761920f66)" d="M 46.570313 143.839173 
L 381.370313 143.839173 
" style="fill:none;stroke:#b0b0b0;stroke-linecap:square;stroke-width:0.8;"/>
     </g>
     <g id="line2d_12">
      <g>
       <use style="stroke:#000000;stroke-width:0.8;" x="46.570313" xlink:href="#m5d7421d42d" y="143.839173"/>
      </g>
     </g>
     <g id="text_7">
      <!-- 4000 -->
      <g transform="translate(19.570313 147.164173)scale(0.1 -0.1)">
       <use xlink:href="#Inconsolata-Regular-52"/>
       <use x="49.999985" xlink:href="#Inconsolata-Regular-48"/>
       <use x="99.999969" xlink:href="#Inconsolata-Regular-48"/>
       <use x="149.999954" xlink:href="#Inconsolata-Regular-48"/>
      </g>
     </g>
    </g>
    <g id="ytick_6">
     <g id="line2d_13">
      <path clip-path="url(#pc761920f66)" d="M 46.570313 118.776906 
L 381.370313 118.776906 
" style="fill:none;stroke:#b0b0b0;stroke-linecap:square;stroke-width:0.8;"/>
     </g>
     <g id="line2d_14">
      <g>
       <use style="stroke:#000000;stroke-width:0.8;" x="46.570313" xlink:href="#m5d7421d42d" y="118.776906"/>
      </g>
     </g>
     <g id="text_8">
      <!-- 5000 -->
      <defs>
       <path d="M 24.90625 -1.09375 
Q 19.203125 -1.09375 14.34375 1.40625 
Q 9.5 3.90625 6.40625 8.5 
L 12 12.703125 
L 12.796875 13.296875 
L 13.203125 12.796875 
Q 13.09375 12 13.4375 11.296875 
Q 13.796875 10.59375 14.796875 9.296875 
Q 16.796875 7.09375 19.25 6.046875 
Q 21.703125 5 25.296875 5 
Q 27.703125 5 29.890625 6.046875 
Q 32.09375 7.09375 33.75 9 
Q 35.40625 10.90625 36.40625 13.703125 
Q 37.40625 16.5 37.40625 19.90625 
Q 37.40625 23.40625 36.40625 26.15625 
Q 35.40625 28.90625 33.65625 30.796875 
Q 31.90625 32.703125 29.59375 33.703125 
Q 27.296875 34.703125 24.59375 34.703125 
Q 22.5 34.703125 20.34375 34 
Q 18.203125 33.296875 16.34375 32 
Q 14.5 30.703125 12.90625 28.796875 
L 8.5 30.59375 
L 10.59375 62.296875 
L 42.203125 62.296875 
L 42.203125 56 
L 16.5 56 
L 15.5 38.09375 
Q 17.203125 38.90625 18.84375 39.453125 
Q 20.5 40 22.25 40.25 
Q 24 40.5 25.703125 40.5 
Q 29.796875 40.5 33.1875 39.046875 
Q 36.59375 37.59375 39.140625 34.84375 
Q 41.703125 32.09375 43.09375 28.25 
Q 44.5 24.40625 44.5 19.59375 
Q 44.5 13.203125 41.890625 8.546875 
Q 39.296875 3.90625 34.890625 1.40625 
Q 30.5 -1.09375 24.90625 -1.09375 
z
" id="Inconsolata-Regular-53"/>
      </defs>
      <g transform="translate(19.570313 122.101906)scale(0.1 -0.1)">
       <use xlink:href="#Inconsolata-Regular-53"/>
       <use x="49.999985" xlink:href="#Inconsolata-Regular-48"/>
       <use x="99.999969" xlink:href="#Inconsolata-Regular-48"/>
       <use x="149.999954" xlink:href="#Inconsolata-Regular-48"/>
      </g>
     </g>
    </g>
    <g id="ytick_7">
     <g id="line2d_15">
      <path clip-path="url(#pc761920f66)" d="M 46.570313 93.714639 
L 381.370313 93.714639 
" style="fill:none;stroke:#b0b0b0;stroke-linecap:square;stroke-width:0.8;"/>
     </g>
     <g id="line2d_16">
      <g>
       <use style="stroke:#000000;stroke-width:0.8;" x="46.570313" xlink:href="#m5d7421d42d" y="93.714639"/>
      </g>
     </g>
     <g id="text_9">
      <!-- 6000 -->
      <g transform="translate(19.570313 97.039639)scale(0.1 -0.1)">
       <use xlink:href="#Inconsolata-Regular-54"/>
       <use x="49.999985" xlink:href="#Inconsolata-Regular-48"/>
       <use x="99.999969" xlink:href="#Inconsolata-Regular-48"/>
       <use x="149.999954" xlink:href="#Inconsolata-Regular-48"/>
      </g>
     </g>
    </g>
    <g id="ytick_8">
     <g id="line2d_17">
      <path clip-path="url(#pc761920f66)" d="M 46.570313 68.652372 
L 381.370313 68.652372 
" style="fill:none;stroke:#b0b0b0;stroke-linecap:square;stroke-width:0.8;"/>
     </g>
     <g id="line2d_18">
      <g>
       <use style="stroke:#000000;stroke-width:0.8;" x="46.570313" xlink:href="#m5d7421d42d" y="68.652372"/>
      </g>
     </g>
     <g id="text_10">
      <!-- 7000 -->
      <g transform="translate(19.570313 71.977372)scale(0.1 -0.1)">
       <use xlink:href="#Inconsolata-Regular-55"/>
       <use x="49.999985" xlink:href="#Inconsolata-Regular-48"/>
       <use x="99.999969" xlink:href="#Inconsolata-Regular-48"/>
       <use x="149.999954" xlink:href="#Inconsolata-Regular-48"/>
      </g>
     </g>
    </g>
    <g id="ytick_9">
     <g id="line2d_19">
      <path clip-path="url(#pc761920f66)" d="M 46.570313 43.590105 
L 381.370313 43.590105 
" style="fill:none;stroke:#b0b0b0;stroke-linecap:square;stroke-width:0.8;"/>
     </g>
     <g id="line2d_20">
      <g>
       <use style="stroke:#000000;stroke-width:0.8;" x="46.570313" xlink:href="#m5d7421d42d" y="43.590105"/>
      </g>
     </g>
     <g id="text_11">
      <!-- 8000 -->
      <defs>
       <path d="M 25 -1 
Q 19.09375 -1 14.84375 1.25 
Q 10.59375 3.5 8.296875 7.296875 
Q 6 11.09375 6 15.703125 
Q 6 19.296875 7.546875 22.59375 
Q 9.09375 25.90625 11.890625 28.65625 
Q 14.703125 31.40625 18.5 33.09375 
Q 15.703125 34.59375 13.546875 36.84375 
Q 11.40625 39.09375 10.203125 41.890625 
Q 9 44.703125 9 47.703125 
Q 9 52 10.84375 55.453125 
Q 12.703125 58.90625 16.34375 61 
Q 20 63.09375 25.5 63.09375 
Q 31.296875 63.09375 34.890625 61.09375 
Q 38.5 59.09375 40.25 55.75 
Q 42 52.40625 42 48.296875 
Q 42 46.09375 41.296875 43.890625 
Q 40.59375 41.703125 39.296875 39.75 
Q 38 37.796875 36.203125 36.140625 
Q 34.40625 34.5 32.09375 33.296875 
Q 34.796875 32.09375 37 30.25 
Q 39.203125 28.40625 40.796875 26.15625 
Q 42.40625 23.90625 43.25 21.34375 
Q 44.09375 18.796875 44.09375 16.09375 
Q 44.09375 11.203125 41.75 7.34375 
Q 39.40625 3.5 35.15625 1.25 
Q 30.90625 -1 25 -1 
z
M 25.203125 5.296875 
Q 29.09375 5.296875 31.6875 6.75 
Q 34.296875 8.203125 35.640625 10.640625 
Q 37 13.09375 37 16.09375 
Q 37 18.40625 36.046875 20.546875 
Q 35.09375 22.703125 33.34375 24.546875 
Q 31.59375 26.40625 29.140625 27.90625 
Q 26.703125 29.40625 23.703125 30.296875 
Q 21.5 29.40625 19.546875 27.953125 
Q 17.59375 26.5 16.1875 24.640625 
Q 14.796875 22.796875 14 20.75 
Q 13.203125 18.703125 13.203125 16.40625 
Q 13.203125 13.40625 14.59375 10.90625 
Q 16 8.40625 18.703125 6.84375 
Q 21.40625 5.296875 25.203125 5.296875 
z
M 26.703125 35.796875 
Q 28.5 36.796875 30.046875 38.1875 
Q 31.59375 39.59375 32.75 41.1875 
Q 33.90625 42.796875 34.546875 44.546875 
Q 35.203125 46.296875 35.203125 48.09375 
Q 35.203125 50.5 34.09375 52.546875 
Q 33 54.59375 30.796875 55.890625 
Q 28.59375 57.203125 25.296875 57.203125 
Q 22 57.203125 19.890625 55.953125 
Q 17.796875 54.703125 16.75 52.703125 
Q 15.703125 50.703125 15.703125 48.40625 
Q 15.703125 46.09375 16.546875 44.296875 
Q 17.40625 42.5 18.90625 41.046875 
Q 20.40625 39.59375 22.40625 38.296875 
Q 24.40625 37 26.703125 35.796875 
z
" id="Inconsolata-Regular-56"/>
      </defs>
      <g transform="translate(19.570313 46.915105)scale(0.1 -0.1)">
       <use xlink:href="#Inconsolata-Regular-56"/>
       <use x="49.999985" xlink:href="#Inconsolata-Regular-48"/>
       <use x="99.999969" xlink:href="#Inconsolata-Regular-48"/>
       <use x="149.999954" xlink:href="#Inconsolata-Regular-48"/>
      </g>
     </g>
    </g>
    <g id="text_12">
     <!-- Rezeptgewicht in Gramm -->
     <defs>
      <path d="M 5.59375 0 
L 5.59375 62.296875 
L 24 62.296875 
Q 31.40625 62.296875 35.953125 60.09375 
Q 40.5 57.90625 42.59375 53.90625 
Q 44.703125 49.90625 44.703125 44.5 
Q 44.703125 41 43.140625 37.5 
Q 41.59375 34 38.75 31.390625 
Q 35.90625 28.796875 32 27.796875 
L 46.40625 0 
L 38.59375 0 
L 24.796875 27.5 
L 12.703125 27.5 
L 12.703125 0 
z
M 12.703125 33.703125 
L 24.796875 33.703125 
Q 31.5 33.703125 34.5 36.640625 
Q 37.5 39.59375 37.5 44.5 
Q 37.5 47.59375 36.203125 50.140625 
Q 34.90625 52.703125 32.09375 54.203125 
Q 29.296875 55.703125 24.796875 55.703125 
L 12.703125 55.703125 
z
" id="Inconsolata-Regular-82"/>
      <path d="M 5 4.90625 
L 33.296875 39.40625 
L 7.09375 39.40625 
L 7.09375 45.703125 
L 42.59375 45.703125 
L 42.59375 40.796875 
L 14.796875 6.203125 
L 40.59375 6.203125 
Q 42.296875 6.203125 43 6.390625 
Q 43.703125 6.59375 44.296875 7.203125 
L 45 7.203125 
L 45 6.203125 
L 45 0 
L 5 0 
z
" id="Inconsolata-Regular-122"/>
      <path d="M 6 -16.703125 
L 6 45.703125 
L 13.296875 45.703125 
L 13.296875 36.703125 
Q 14.40625 40.203125 16.453125 42.390625 
Q 18.5 44.59375 21.25 45.640625 
Q 24 46.703125 27.203125 46.703125 
Q 31 46.703125 34.453125 45.25 
Q 37.90625 43.796875 40.546875 40.890625 
Q 43.203125 38 44.75 33.59375 
Q 46.296875 29.203125 46.296875 23.203125 
Q 46.296875 17.203125 44.640625 12.59375 
Q 43 8 40.25 4.953125 
Q 37.5 1.90625 34.046875 0.34375 
Q 30.59375 -1.203125 27 -1.203125 
Q 24.296875 -1.203125 21.75 -0.34375 
Q 19.203125 0.5 17.09375 2.140625 
Q 15 3.796875 13.40625 6 
L 13.40625 -16.703125 
z
M 25.796875 5.203125 
Q 28.203125 5.203125 30.5 6.046875 
Q 32.796875 6.90625 34.6875 8.90625 
Q 36.59375 10.90625 37.6875 14.34375 
Q 38.796875 17.796875 38.796875 22.90625 
Q 38.796875 28.40625 37.390625 32.25 
Q 36 36.09375 33.34375 38.1875 
Q 30.703125 40.296875 26.90625 40.5 
Q 24.09375 40.703125 21.640625 39.703125 
Q 19.203125 38.703125 17.296875 36.390625 
Q 15.40625 34.09375 14.34375 30.34375 
Q 13.296875 26.59375 13.296875 21.296875 
Q 13.40625 18.09375 14 15.5 
Q 14.59375 12.90625 15.6875 10.953125 
Q 16.796875 9 18.296875 7.75 
Q 19.796875 6.5 21.6875 5.84375 
Q 23.59375 5.203125 25.796875 5.203125 
z
" id="Inconsolata-Regular-112"/>
      <path d="M 24.703125 -17.203125 
Q 19.90625 -17.203125 16.046875 -16.453125 
Q 12.203125 -15.703125 9.453125 -14.25 
Q 6.703125 -12.796875 5.25 -10.59375 
Q 3.796875 -8.40625 3.796875 -5.40625 
Q 3.796875 -2.59375 5 -0.390625 
Q 6.203125 1.796875 8.140625 3.25 
Q 10.09375 4.703125 12.40625 5.40625 
L 15.40625 3.59375 
Q 13.59375 2.5 12.5 1.390625 
Q 11.40625 0.296875 10.90625 -1.140625 
Q 10.40625 -2.59375 10.40625 -4.59375 
Q 10.40625 -6.296875 11.40625 -7.640625 
Q 12.40625 -9 14.25 -9.890625 
Q 16.09375 -10.796875 18.75 -11.296875 
Q 21.40625 -11.796875 24.796875 -11.796875 
Q 29.40625 -11.796875 32.25 -10.84375 
Q 35.09375 -9.90625 36.5 -8.25 
Q 37.90625 -6.59375 37.90625 -4.5 
Q 37.90625 -2.296875 37.09375 -0.890625 
Q 36.296875 0.5 33.796875 1.203125 
Q 31.296875 1.90625 26.203125 1.90625 
Q 22.703125 1.90625 19.796875 2.203125 
Q 16.90625 2.5 14.59375 3.203125 
Q 12.296875 3.90625 10.75 4.953125 
Q 9.203125 6 8.390625 7.5 
Q 7.59375 9 7.59375 11 
Q 7.59375 13.59375 9.046875 16 
Q 10.5 18.40625 13 20.59375 
L 16.40625 17.90625 
Q 15.40625 16.796875 14.796875 15.9375 
Q 14.203125 15.09375 13.953125 14.34375 
Q 13.703125 13.59375 13.703125 12.703125 
Q 13.703125 11.09375 14.953125 10.09375 
Q 16.203125 9.09375 19.296875 8.640625 
Q 22.40625 8.203125 27.703125 8.203125 
Q 33 8.203125 36.296875 7.34375 
Q 39.59375 6.5 41.34375 4.890625 
Q 43.09375 3.296875 43.796875 1.1875 
Q 44.5 -0.90625 44.5 -3.40625 
Q 44.5 -6.09375 43.453125 -8.546875 
Q 42.40625 -11 40.09375 -12.953125 
Q 37.796875 -14.90625 34 -16.046875 
Q 30.203125 -17.203125 24.703125 -17.203125 
z
M 22.59375 15.5 
Q 17.703125 15.5 14.09375 17.640625 
Q 10.5 19.796875 8.546875 23.4375 
Q 6.59375 27.09375 6.59375 31.5 
Q 6.59375 35.90625 8.546875 39.5 
Q 10.5 43.09375 14.09375 45.25 
Q 17.703125 47.40625 22.59375 47.40625 
Q 27.59375 47.40625 31.140625 45.25 
Q 34.703125 43.09375 36.640625 39.5 
Q 38.59375 35.90625 38.59375 31.5 
Q 38.59375 27.09375 36.640625 23.4375 
Q 34.703125 19.796875 31.140625 17.640625 
Q 27.59375 15.5 22.59375 15.5 
z
M 22.59375 21.5 
Q 25.5 21.5 27.75 22.84375 
Q 30 24.203125 31.296875 26.5 
Q 32.59375 28.796875 32.59375 31.5 
Q 32.59375 34.296875 31.296875 36.546875 
Q 30 38.796875 27.75 40.140625 
Q 25.5 41.5 22.59375 41.5 
Q 19.703125 41.5 17.453125 40.140625 
Q 15.203125 38.796875 13.890625 36.546875 
Q 12.59375 34.296875 12.59375 31.5 
Q 12.59375 28.796875 13.890625 26.5 
Q 15.203125 24.203125 17.453125 22.84375 
Q 19.703125 21.5 22.59375 21.5 
z
M 35.90625 38.296875 
L 33.09375 41.59375 
Q 36 44.5 39.140625 45.84375 
Q 42.296875 47.203125 46.59375 46.90625 
L 47.5 41 
Q 44.203125 41.296875 41.296875 40.796875 
Q 38.40625 40.296875 35.90625 38.296875 
z
" id="Inconsolata-Regular-103"/>
      <path d="M 10.796875 -0.09375 
L 1.59375 45.703125 
L 7.90625 45.703125 
L 15.296875 9 
L 23.09375 41.40625 
L 27.5 41.40625 
L 37.203125 9.09375 
Q 38.5 18 39.34375 23.703125 
Q 40.203125 29.40625 40.640625 33.046875 
Q 41.09375 36.703125 41.25 39.203125 
Q 41.40625 41.703125 41.40625 44.203125 
L 41.40625 45.703125 
L 48.09375 45.703125 
Q 47.09375 38 45.9375 30.34375 
Q 44.796875 22.703125 43.4375 15.09375 
Q 42.09375 7.5 40.5 -0.09375 
L 33.703125 -0.09375 
L 25.296875 29.5 
L 17.296875 -0.09375 
z
" id="Inconsolata-Regular-119"/>
      <path d="M 28.5 -1.09375 
Q 23.5 -1.09375 19.296875 0.703125 
Q 15.09375 2.5 12.046875 5.703125 
Q 9 8.90625 7.296875 13.25 
Q 5.59375 17.59375 5.59375 22.796875 
Q 5.59375 27.90625 7.296875 32.25 
Q 9 36.59375 12.046875 39.796875 
Q 15.09375 43 19.296875 44.796875 
Q 23.5 46.59375 28.40625 46.59375 
Q 34 46.59375 38.453125 44.34375 
Q 42.90625 42.09375 45.703125 38.09375 
L 41.203125 33.703125 
L 40.5 33 
L 40 33.5 
Q 40 34.296875 39.640625 35 
Q 39.296875 35.703125 38.09375 36.90625 
Q 35.90625 38.90625 33.40625 39.703125 
Q 30.90625 40.5 27.59375 40.5 
Q 24.703125 40.5 22.09375 39.296875 
Q 19.5 38.09375 17.453125 35.84375 
Q 15.40625 33.59375 14.203125 30.390625 
Q 13 27.203125 13 23.296875 
Q 13 19.40625 14.203125 16.15625 
Q 15.40625 12.90625 17.5 10.5 
Q 19.59375 8.09375 22.546875 6.75 
Q 25.5 5.40625 28.90625 5.40625 
Q 31.203125 5.40625 33.296875 6.046875 
Q 35.40625 6.703125 37.296875 7.953125 
Q 39.203125 9.203125 40.796875 11 
L 45 6.09375 
Q 41.59375 2.5 37.4375 0.703125 
Q 33.296875 -1.09375 28.5 -1.09375 
z
" id="Inconsolata-Regular-99"/>
      <path d="M 27.703125 -1 
Q 20.296875 -1 14.84375 2.890625 
Q 9.40625 6.796875 6.5 13.890625 
Q 3.59375 21 3.59375 30.40625 
Q 3.5 38.5 5.046875 44.140625 
Q 6.59375 49.796875 9.1875 53.5 
Q 11.796875 57.203125 15 59.296875 
Q 18.203125 61.40625 21.453125 62.203125 
Q 24.703125 63 27.40625 63 
Q 31.09375 63 34.640625 61.640625 
Q 38.203125 60.296875 41.140625 58 
Q 44.09375 55.703125 45.796875 52.5 
L 40.90625 48.59375 
L 40.09375 47.90625 
L 39.703125 48.5 
Q 39.796875 49.296875 39.4375 49.9375 
Q 39.09375 50.59375 38 51.90625 
Q 36.5 53.59375 34.890625 54.6875 
Q 33.296875 55.796875 31.4375 56.296875 
Q 29.59375 56.796875 27.296875 56.796875 
Q 24.59375 56.796875 22.09375 56.046875 
Q 19.59375 55.296875 17.5 53.546875 
Q 15.40625 51.796875 13.796875 48.890625 
Q 12.203125 46 11.34375 41.796875 
Q 10.5 37.59375 10.5 31.90625 
Q 10.5 25.40625 11.703125 20.453125 
Q 12.90625 15.5 15.15625 12.09375 
Q 17.40625 8.703125 20.546875 6.953125 
Q 23.703125 5.203125 27.703125 5.203125 
Q 29.09375 5.203125 30.640625 5.390625 
Q 32.203125 5.59375 33.75 6.046875 
Q 35.296875 6.5 36.796875 7.25 
Q 38.296875 8 39.5 9 
L 39.5 23.796875 
L 28.203125 23.796875 
L 28.203125 29.90625 
L 46 29.90625 
L 46 5.5 
Q 41.59375 2.296875 37 0.640625 
Q 32.40625 -1 27.703125 -1 
z
" id="Inconsolata-Regular-71"/>
      <path d="M 21.09375 -1.09375 
Q 13.296875 -1.09375 9.09375 2.453125 
Q 4.90625 6 4.90625 11.5 
Q 4.90625 15.203125 6.703125 18.140625 
Q 8.5 21.09375 11.640625 23.140625 
Q 14.796875 25.203125 19 26.296875 
Q 23.203125 27.40625 27.90625 27.40625 
Q 29.59375 27.40625 31.34375 27.34375 
Q 33.09375 27.296875 35.046875 27.140625 
Q 37 27 39.09375 26.703125 
L 39.296875 21.203125 
Q 37.5 21.5 35.640625 21.640625 
Q 33.796875 21.796875 32 21.890625 
Q 30.203125 22 28.5 22 
Q 24.90625 22 21.90625 21.390625 
Q 18.90625 20.796875 16.703125 19.59375 
Q 14.5 18.40625 13.296875 16.5 
Q 12.09375 14.59375 12.09375 11.90625 
Q 12.09375 9.796875 12.84375 8.34375 
Q 13.59375 6.90625 14.890625 6.046875 
Q 16.203125 5.203125 17.953125 4.796875 
Q 19.703125 4.40625 21.796875 4.40625 
Q 25.703125 4.40625 28.75 5.65625 
Q 31.796875 6.90625 33.9375 9.296875 
Q 36.09375 11.703125 37.1875 15.203125 
Q 38.296875 18.703125 38.296875 23.203125 
Q 38.296875 30 36.6875 33.796875 
Q 35.09375 37.59375 31.9375 39.1875 
Q 28.796875 40.796875 23.90625 40.796875 
Q 20.59375 40.796875 17.390625 39.546875 
Q 14.203125 38.296875 11.59375 35.703125 
L 8.09375 40.296875 
Q 11.296875 43.5 15.5 45.09375 
Q 19.703125 46.703125 24.40625 46.703125 
Q 28.90625 46.703125 32.59375 45.59375 
Q 36.296875 44.5 38.9375 41.953125 
Q 41.59375 39.40625 43.046875 35.09375 
Q 44.5 30.796875 44.5 24.296875 
L 44.5 0 
L 36.703125 0 
L 36.703125 7 
Q 35.40625 4.5 33.546875 2.890625 
Q 31.703125 1.296875 29.59375 0.4375 
Q 27.5 -0.40625 25.296875 -0.75 
Q 23.09375 -1.09375 21.09375 -1.09375 
z
" id="Inconsolata-Regular-97"/>
      <path d="M 3.796875 0 
L 3.796875 45.703125 
L 10.40625 45.703125 
L 10.40625 41.203125 
Q 11.5 42.90625 12.953125 44.15625 
Q 14.40625 45.40625 16.15625 46.09375 
Q 17.90625 46.796875 19.703125 46.796875 
Q 21.703125 46.796875 23.390625 45.9375 
Q 25.09375 45.09375 26.25 43.59375 
Q 27.40625 42.09375 27.796875 40.09375 
Q 28.703125 42.09375 30.25 43.59375 
Q 31.796875 45.09375 33.84375 45.9375 
Q 35.90625 46.796875 38.09375 46.796875 
Q 40.40625 46.796875 42.09375 45.890625 
Q 43.796875 45 44.890625 43.453125 
Q 46 41.90625 46.5 39.75 
Q 47 37.59375 46.90625 35.09375 
L 46.90625 0 
L 40.296875 0 
L 40.296875 32.40625 
Q 40.296875 36.59375 39.75 38.5 
Q 39.203125 40.40625 38.203125 40.953125 
Q 37.203125 41.5 36 41.5 
Q 34.09375 41.5 32.4375 39.75 
Q 30.796875 38 29.75 35.390625 
Q 28.703125 32.796875 28.703125 30.203125 
L 28.703125 0 
L 22 0 
L 22 31.796875 
Q 22 37.5 20.953125 39.390625 
Q 19.90625 41.296875 17 41.296875 
Q 15.90625 41.296875 14.75 40.546875 
Q 13.59375 39.796875 12.59375 38.4375 
Q 11.59375 37.09375 11 35.09375 
Q 10.40625 33.09375 10.40625 30.5 
L 10.40625 0 
z
" id="Inconsolata-Regular-109"/>
     </defs>
     <g transform="translate(13.85 199.72)rotate(-90)scale(0.1 -0.1)">
      <use xlink:href="#Inconsolata-Regular-82"/>
      <use x="49.999985" xlink:href="#Inconsolata-Regular-101"/>
      <use x="99.999969" xlink:href="#Inconsolata-Regular-122"/>
      <use x="149.999954" xlink:href="#Inconsolata-Regular-101"/>
      <use x="199.999939" xlink:href="#Inconsolata-Regular-112"/>
      <use x="249.999924" xlink:href="#Inconsolata-Regular-116"/>
      <use x="299.999908" xlink:href="#Inconsolata-Regular-103"/>
      <use x="349.999893" xlink:href="#Inconsolata-Regular-101"/>
      <use x="399.999878" xlink:href="#Inconsolata-Regular-119"/>
      <use x="449.999863" xlink:href="#Inconsolata-Regular-105"/>
      <use x="499.999847" xlink:href="#Inconsolata-Regular-99"/>
      <use x="549.999832" xlink:href="#Inconsolata-Regular-104"/>
      <use x="599.999817" xlink:href="#Inconsolata-Regular-116"/>
      <use x="649.999802" xlink:href="#Inconsolata-Regular-32"/>
      <use x="699.999786" xlink:href="#Inconsolata-Regular-105"/>
      <use x="749.999771" xlink:href="#Inconsolata-Regular-110"/>
      <use x="799.999756" xlink:href="#Inconsolata-Regular-32"/>
      <use x="849.999741" xlink:href="#Inconsolata-Regular-71"/>
      <use x="899.999725" xlink:href="#Inconsolata-Regular-114"/>
      <use x="949.99971" xlink:href="#Inconsolata-Regular-97"/>
      <use x="999.999695" xlink:href="#Inconsolata-Regular-109"/>
      <use x="1049.99968" xlink:href="#Inconsolata-Regular-109"/>
     </g>
    </g>
   </g>
   <g id="line2d_21">
    <path clip-path="url(#pc761920f66)" d="M 130.270313 224.30112 
L 130.270313 243.556364 
" style="fill:none;stroke:#000000;stroke-dasharray:7.4,3.2;stroke-dashoffset:0;stroke-width:2;"/>
   </g>
   <g id="line2d_22">
    <path clip-path="url(#pc761920f66)" d="M 130.270313 208.371383 
L 130.270313 184.600889 
" style="fill:none;stroke:#000000;stroke-dasharray:7.4,3.2;stroke-dashoffset:0;stroke-width:2;"/>
   </g>
   <g id="line2d_23">
    <path clip-path="url(#pc761920f66)" d="M 123.992813 243.556364 
L 136.547813 243.556364 
" style="fill:none;stroke:#000000;stroke-linecap:square;"/>
   </g>
   <g id="line2d_24">
    <path clip-path="url(#pc761920f66)" d="M 123.992813 184.600889 
L 136.547813 184.600889 
" style="fill:none;stroke:#000000;stroke-linecap:square;"/>
   </g>
   <g id="line2d_25">
    <defs>
     <path d="M -3 0 
L 3 0 
M 0 3 
L 0 -3 
" id="mdce51413c8" style="stroke:#000000;"/>
    </defs>
    <g clip-path="url(#pc761920f66)">
     <use style="fill-opacity:0;stroke:#000000;" x="130.270313" xlink:href="#mdce51413c8" y="173.964018"/>
     <use style="fill-opacity:0;stroke:#000000;" x="130.270313" xlink:href="#mdce51413c8" y="176.522875"/>
     <use style="fill-opacity:0;stroke:#000000;" x="130.270313" xlink:href="#mdce51413c8" y="182.596208"/>
     <use style="fill-opacity:0;stroke:#000000;" x="130.270313" xlink:href="#mdce51413c8" y="175.783538"/>
     <use style="fill-opacity:0;stroke:#000000;" x="130.270313" xlink:href="#mdce51413c8" y="179.168875"/>
     <use style="fill-opacity:0;stroke:#000000;" x="130.270313" xlink:href="#mdce51413c8" y="181.873249"/>
     <use style="fill-opacity:0;stroke:#000000;" x="130.270313" xlink:href="#mdce51413c8" y="156.011208"/>
     <use style="fill-opacity:0;stroke:#000000;" x="130.270313" xlink:href="#mdce51413c8" y="177.782209"/>
     <use style="fill-opacity:0;stroke:#000000;" x="130.270313" xlink:href="#mdce51413c8" y="175.378198"/>
     <use style="fill-opacity:0;stroke:#000000;" x="130.270313" xlink:href="#mdce51413c8" y="171.875495"/>
     <use style="fill-opacity:0;stroke:#000000;" x="130.270313" xlink:href="#mdce51413c8" y="167.239104"/>
     <use style="fill-opacity:0;stroke:#000000;" x="130.270313" xlink:href="#mdce51413c8" y="179.201405"/>
     <use style="fill-opacity:0;stroke:#000000;" x="130.270313" xlink:href="#mdce51413c8" y="181.65534"/>
     <use style="fill-opacity:0;stroke:#000000;" x="130.270313" xlink:href="#mdce51413c8" y="143.327276"/>
     <use style="fill-opacity:0;stroke:#000000;" x="130.270313" xlink:href="#mdce51413c8" y="159.335172"/>
     <use style="fill-opacity:0;stroke:#000000;" x="130.270313" xlink:href="#mdce51413c8" y="180.271877"/>
     <use style="fill-opacity:0;stroke:#000000;" x="130.270313" xlink:href="#mdce51413c8" y="163.521312"/>
     <use style="fill-opacity:0;stroke:#000000;" x="130.270313" xlink:href="#mdce51413c8" y="176.671361"/>
     <use style="fill-opacity:0;stroke:#000000;" x="130.270313" xlink:href="#mdce51413c8" y="157.154755"/>
     <use style="fill-opacity:0;stroke:#000000;" x="130.270313" xlink:href="#mdce51413c8" y="141.09854"/>
     <use style="fill-opacity:0;stroke:#000000;" x="130.270313" xlink:href="#mdce51413c8" y="181.850275"/>
     <use style="fill-opacity:0;stroke:#000000;" x="130.270313" xlink:href="#mdce51413c8" y="183.757433"/>
     <use style="fill-opacity:0;stroke:#000000;" x="130.270313" xlink:href="#mdce51413c8" y="176.453184"/>
     <use style="fill-opacity:0;stroke:#000000;" x="130.270313" xlink:href="#mdce51413c8" y="180.025186"/>
     <use style="fill-opacity:0;stroke:#000000;" x="130.270313" xlink:href="#mdce51413c8" y="162.622422"/>
     <use style="fill-opacity:0;stroke:#000000;" x="130.270313" xlink:href="#mdce51413c8" y="180.458462"/>
     <use style="fill-opacity:0;stroke:#000000;" x="130.270313" xlink:href="#mdce51413c8" y="164.471484"/>
     <use style="fill-opacity:0;stroke:#000000;" x="130.270313" xlink:href="#mdce51413c8" y="168.694927"/>
     <use style="fill-opacity:0;stroke:#000000;" x="130.270313" xlink:href="#mdce51413c8" y="178.66862"/>
     <use style="fill-opacity:0;stroke:#000000;" x="130.270313" xlink:href="#mdce51413c8" y="176.63035"/>
     <use style="fill-opacity:0;stroke:#000000;" x="130.270313" xlink:href="#mdce51413c8" y="169.533009"/>
     <use style="fill-opacity:0;stroke:#000000;" x="130.270313" xlink:href="#mdce51413c8" y="183.362243"/>
     <use style="fill-opacity:0;stroke:#000000;" x="130.270313" xlink:href="#mdce51413c8" y="165.421333"/>
     <use style="fill-opacity:0;stroke:#000000;" x="130.270313" xlink:href="#mdce51413c8" y="184.08099"/>
     <use style="fill-opacity:0;stroke:#000000;" x="130.270313" xlink:href="#mdce51413c8" y="182.610541"/>
     <use style="fill-opacity:0;stroke:#000000;" x="130.270313" xlink:href="#mdce51413c8" y="176.198464"/>
     <use style="fill-opacity:0;stroke:#000000;" x="130.270313" xlink:href="#mdce51413c8" y="175.354047"/>
     <use style="fill-opacity:0;stroke:#000000;" x="130.270313" xlink:href="#mdce51413c8" y="165.19506"/>
     <use style="fill-opacity:0;stroke:#000000;" x="130.270313" xlink:href="#mdce51413c8" y="181.697105"/>
     <use style="fill-opacity:0;stroke:#000000;" x="130.270313" xlink:href="#mdce51413c8" y="173.928721"/>
     <use style="fill-opacity:0;stroke:#000000;" x="130.270313" xlink:href="#mdce51413c8" y="170.941611"/>
     <use style="fill-opacity:0;stroke:#000000;" x="130.270313" xlink:href="#mdce51413c8" y="182.775911"/>
     <use style="fill-opacity:0;stroke:#000000;" x="130.270313" xlink:href="#mdce51413c8" y="179.665683"/>
     <use style="fill-opacity:0;stroke:#000000;" x="130.270313" xlink:href="#mdce51413c8" y="124.280357"/>
     <use style="fill-opacity:0;stroke:#000000;" x="130.270313" xlink:href="#mdce51413c8" y="171.075371"/>
     <use style="fill-opacity:0;stroke:#000000;" x="130.270313" xlink:href="#mdce51413c8" y="126.00998"/>
     <use style="fill-opacity:0;stroke:#000000;" x="130.270313" xlink:href="#mdce51413c8" y="184.145168"/>
     <use style="fill-opacity:0;stroke:#000000;" x="130.270313" xlink:href="#mdce51413c8" y="175.089648"/>
     <use style="fill-opacity:0;stroke:#000000;" x="130.270313" xlink:href="#mdce51413c8" y="176.397485"/>
     <use style="fill-opacity:0;stroke:#000000;" x="130.270313" xlink:href="#mdce51413c8" y="182.058806"/>
     <use style="fill-opacity:0;stroke:#000000;" x="130.270313" xlink:href="#mdce51413c8" y="171.568065"/>
     <use style="fill-opacity:0;stroke:#000000;" x="130.270313" xlink:href="#mdce51413c8" y="183.827691"/>
     <use style="fill-opacity:0;stroke:#000000;" x="130.270313" xlink:href="#mdce51413c8" y="184.267116"/>
     <use style="fill-opacity:0;stroke:#000000;" x="130.270313" xlink:href="#mdce51413c8" y="183.870714"/>
     <use style="fill-opacity:0;stroke:#000000;" x="130.270313" xlink:href="#mdce51413c8" y="180.33956"/>
     <use style="fill-opacity:0;stroke:#000000;" x="130.270313" xlink:href="#mdce51413c8" y="182.223966"/>
     <use style="fill-opacity:0;stroke:#000000;" x="130.270313" xlink:href="#mdce51413c8" y="152.811021"/>
     <use style="fill-opacity:0;stroke:#000000;" x="130.270313" xlink:href="#mdce51413c8" y="175.82865"/>
     <use style="fill-opacity:0;stroke:#000000;" x="130.270313" xlink:href="#mdce51413c8" y="168.707458"/>
     <use style="fill-opacity:0;stroke:#000000;" x="130.270313" xlink:href="#mdce51413c8" y="173.360228"/>
     <use style="fill-opacity:0;stroke:#000000;" x="130.270313" xlink:href="#mdce51413c8" y="163.931429"/>
     <use style="fill-opacity:0;stroke:#000000;" x="130.270313" xlink:href="#mdce51413c8" y="151.493189"/>
     <use style="fill-opacity:0;stroke:#000000;" x="130.270313" xlink:href="#mdce51413c8" y="183.542507"/>
     <use style="fill-opacity:0;stroke:#000000;" x="130.270313" xlink:href="#mdce51413c8" y="177.923854"/>
     <use style="fill-opacity:0;stroke:#000000;" x="130.270313" xlink:href="#mdce51413c8" y="179.204538"/>
     <use style="fill-opacity:0;stroke:#000000;" x="130.270313" xlink:href="#mdce51413c8" y="174.819894"/>
     <use style="fill-opacity:0;stroke:#000000;" x="130.270313" xlink:href="#mdce51413c8" y="181.715773"/>
     <use style="fill-opacity:0;stroke:#000000;" x="130.270313" xlink:href="#mdce51413c8" y="180.956774"/>
     <use style="fill-opacity:0;stroke:#000000;" x="130.270313" xlink:href="#mdce51413c8" y="180.167131"/>
     <use style="fill-opacity:0;stroke:#000000;" x="130.270313" xlink:href="#mdce51413c8" y="176.073377"/>
     <use style="fill-opacity:0;stroke:#000000;" x="130.270313" xlink:href="#mdce51413c8" y="177.154444"/>
     <use style="fill-opacity:0;stroke:#000000;" x="130.270313" xlink:href="#mdce51413c8" y="129.925304"/>
     <use style="fill-opacity:0;stroke:#000000;" x="130.270313" xlink:href="#mdce51413c8" y="176.710842"/>
     <use style="fill-opacity:0;stroke:#000000;" x="130.270313" xlink:href="#mdce51413c8" y="182.735317"/>
     <use style="fill-opacity:0;stroke:#000000;" x="130.270313" xlink:href="#mdce51413c8" y="175.495322"/>
     <use style="fill-opacity:0;stroke:#000000;" x="130.270313" xlink:href="#mdce51413c8" y="178.550412"/>
     <use style="fill-opacity:0;stroke:#000000;" x="130.270313" xlink:href="#mdce51413c8" y="180.6034"/>
     <use style="fill-opacity:0;stroke:#000000;" x="130.270313" xlink:href="#mdce51413c8" y="181.093396"/>
     <use style="fill-opacity:0;stroke:#000000;" x="130.270313" xlink:href="#mdce51413c8" y="181.693085"/>
     <use style="fill-opacity:0;stroke:#000000;" x="130.270313" xlink:href="#mdce51413c8" y="182.993947"/>
     <use style="fill-opacity:0;stroke:#000000;" x="130.270313" xlink:href="#mdce51413c8" y="167.115054"/>
     <use style="fill-opacity:0;stroke:#000000;" x="130.270313" xlink:href="#mdce51413c8" y="175.346202"/>
     <use style="fill-opacity:0;stroke:#000000;" x="130.270313" xlink:href="#mdce51413c8" y="177.787811"/>
     <use style="fill-opacity:0;stroke:#000000;" x="130.270313" xlink:href="#mdce51413c8" y="45.883636"/>
     <use style="fill-opacity:0;stroke:#000000;" x="130.270313" xlink:href="#mdce51413c8" y="172.756433"/>
     <use style="fill-opacity:0;stroke:#000000;" x="130.270313" xlink:href="#mdce51413c8" y="154.508385"/>
     <use style="fill-opacity:0;stroke:#000000;" x="130.270313" xlink:href="#mdce51413c8" y="127.246072"/>
     <use style="fill-opacity:0;stroke:#000000;" x="130.270313" xlink:href="#mdce51413c8" y="172.471904"/>
     <use style="fill-opacity:0;stroke:#000000;" x="130.270313" xlink:href="#mdce51413c8" y="178.685125"/>
     <use style="fill-opacity:0;stroke:#000000;" x="130.270313" xlink:href="#mdce51413c8" y="157.352265"/>
     <use style="fill-opacity:0;stroke:#000000;" x="130.270313" xlink:href="#mdce51413c8" y="179.824847"/>
     <use style="fill-opacity:0;stroke:#000000;" x="130.270313" xlink:href="#mdce51413c8" y="161.20642"/>
     <use style="fill-opacity:0;stroke:#000000;" x="130.270313" xlink:href="#mdce51413c8" y="125.518656"/>
     <use style="fill-opacity:0;stroke:#000000;" x="130.270313" xlink:href="#mdce51413c8" y="179.231161"/>
     <use style="fill-opacity:0;stroke:#000000;" x="130.270313" xlink:href="#mdce51413c8" y="174.462757"/>
     <use style="fill-opacity:0;stroke:#000000;" x="130.270313" xlink:href="#mdce51413c8" y="99.245551"/>
     <use style="fill-opacity:0;stroke:#000000;" x="130.270313" xlink:href="#mdce51413c8" y="152.461846"/>
     <use style="fill-opacity:0;stroke:#000000;" x="130.270313" xlink:href="#mdce51413c8" y="152.80777"/>
     <use style="fill-opacity:0;stroke:#000000;" x="130.270313" xlink:href="#mdce51413c8" y="158.205867"/>
     <use style="fill-opacity:0;stroke:#000000;" x="130.270313" xlink:href="#mdce51413c8" y="183.054843"/>
     <use style="fill-opacity:0;stroke:#000000;" x="130.270313" xlink:href="#mdce51413c8" y="177.822353"/>
     <use style="fill-opacity:0;stroke:#000000;" x="130.270313" xlink:href="#mdce51413c8" y="182.461797"/>
     <use style="fill-opacity:0;stroke:#000000;" x="130.270313" xlink:href="#mdce51413c8" y="144.01229"/>
     <use style="fill-opacity:0;stroke:#000000;" x="130.270313" xlink:href="#mdce51413c8" y="156.758771"/>
    </g>
   </g>
   <g id="line2d_26">
    <path clip-path="url(#pc761920f66)" d="M 297.670313 223.393474 
L 297.670313 231.537343 
" style="fill:none;stroke:#000000;stroke-dasharray:7.4,3.2;stroke-dashoffset:0;stroke-width:2;"/>
   </g>
   <g id="line2d_27">
    <path clip-path="url(#pc761920f66)" d="M 297.670313 208.722771 
L 297.670313 186.726476 
" style="fill:none;stroke:#000000;stroke-dasharray:7.4,3.2;stroke-dashoffset:0;stroke-width:2;"/>
   </g>
   <g id="line2d_28">
    <path clip-path="url(#pc761920f66)" d="M 291.392812 231.537343 
L 303.947813 231.537343 
" style="fill:none;stroke:#000000;stroke-linecap:square;"/>
   </g>
   <g id="line2d_29">
    <path clip-path="url(#pc761920f66)" d="M 291.392812 186.726476 
L 303.947813 186.726476 
" style="fill:none;stroke:#000000;stroke-linecap:square;"/>
   </g>
   <g id="line2d_30">
    <g clip-path="url(#pc761920f66)">
     <use style="fill-opacity:0;stroke:#000000;" x="297.670313" xlink:href="#mdce51413c8" y="186.442419"/>
     <use style="fill-opacity:0;stroke:#000000;" x="297.670313" xlink:href="#mdce51413c8" y="184.829343"/>
     <use style="fill-opacity:0;stroke:#000000;" x="297.670313" xlink:href="#mdce51413c8" y="186.325981"/>
     <use style="fill-opacity:0;stroke:#000000;" x="297.670313" xlink:href="#mdce51413c8" y="185.270319"/>
     <use style="fill-opacity:0;stroke:#000000;" x="297.670313" xlink:href="#mdce51413c8" y="185.148581"/>
     <use style="fill-opacity:0;stroke:#000000;" x="297.670313" xlink:href="#mdce51413c8" y="186.232375"/>
     <use style="fill-opacity:0;stroke:#000000;" x="297.670313" xlink:href="#mdce51413c8" y="185.531776"/>
     <use style="fill-opacity:0;stroke:#000000;" x="297.670313" xlink:href="#mdce51413c8" y="184.600889"/>
     <use style="fill-opacity:0;stroke:#000000;" x="297.670313" xlink:href="#mdce51413c8" y="184.812967"/>
     <use style="fill-opacity:0;stroke:#000000;" x="297.670313" xlink:href="#mdce51413c8" y="186.144666"/>
     <use style="fill-opacity:0;stroke:#000000;" x="297.670313" xlink:href="#mdce51413c8" y="186.37817"/>
     <use style="fill-opacity:0;stroke:#000000;" x="297.670313" xlink:href="#mdce51413c8" y="185.357324"/>
     <use style="fill-opacity:0;stroke:#000000;" x="297.670313" xlink:href="#mdce51413c8" y="185.112341"/>
     <use style="fill-opacity:0;stroke:#000000;" x="297.670313" xlink:href="#mdce51413c8" y="184.766164"/>
     <use style="fill-opacity:0;stroke:#000000;" x="297.670313" xlink:href="#mdce51413c8" y="185.283642"/>
     <use style="fill-opacity:0;stroke:#000000;" x="297.670313" xlink:href="#mdce51413c8" y="186.407719"/>
     <use style="fill-opacity:0;stroke:#000000;" x="297.670313" xlink:href="#mdce51413c8" y="185.487314"/>
     <use style="fill-opacity:0;stroke:#000000;" x="297.670313" xlink:href="#mdce51413c8" y="184.825952"/>
     <use style="fill-opacity:0;stroke:#000000;" x="297.670313" xlink:href="#mdce51413c8" y="186.466407"/>
     <use style="fill-opacity:0;stroke:#000000;" x="297.670313" xlink:href="#mdce51413c8" y="186.506252"/>
    </g>
   </g>
   <g id="patch_3">
    <path clip-path="url(#pc761920f66)" d="M 117.715313 224.30112 
L 142.825313 224.30112 
L 142.825313 208.371383 
L 117.715313 208.371383 
L 117.715313 224.30112 
z
" style="fill:#708090;stroke:#000000;stroke-linejoin:miter;"/>
   </g>
   <g id="patch_4">
    <path clip-path="url(#pc761920f66)" d="M 285.115313 223.393474 
L 310.225313 223.393474 
L 310.225313 208.722771 
L 285.115313 208.722771 
L 285.115313 223.393474 
z
" style="fill:#708090;stroke:#000000;stroke-linejoin:miter;"/>
   </g>
   <g id="line2d_31">
    <path clip-path="url(#pc761920f66)" d="M 117.715313 217.242374 
L 142.825313 217.242374 
" style="fill:none;stroke:#ff7f0e;stroke-linecap:square;"/>
   </g>
   <g id="line2d_32">
    <path clip-path="url(#pc761920f66)" d="M 285.115313 217.030022 
L 310.225313 217.030022 
" style="fill:none;stroke:#ff7f0e;stroke-linecap:square;"/>
   </g>
   <g id="patch_5">
    <path d="M 46.570313 253.44 
L 46.570313 36 
" style="fill:none;stroke:#000000;stroke-linecap:square;stroke-linejoin:miter;stroke-width:0.8;"/>
   </g>
   <g id="patch_6">
    <path d="M 381.370313 253.44 
L 381.370313 36 
" style="fill:none;stroke:#000000;stroke-linecap:square;stroke-linejoin:miter;stroke-width:0.8;"/>
   </g>
   <g id="patch_7">
    <path d="M 46.570313 253.44 
L 381.370313 253.44 
" style="fill:none;stroke:#000000;stroke-linecap:square;stroke-linejoin:miter;stroke-width:0.8;"/>
   </g>
   <g id="patch_8">
    <path d="M 46.570313 36 
L 381.370313 36 
" style="fill:none;stroke:#000000;stroke-linecap:square;stroke-linejoin:miter;stroke-width:0.8;"/>
   </g>
  </g>
  <g id="text_13">
   <!-- Rezeptgewicht Bereinigung -->
   <defs>
    <path d="M 4.796875 0 
L 4.796875 62.296875 
L 22.5 62.296875 
Q 27.90625 62.296875 31.796875 61.1875 
Q 35.703125 60.09375 38.25 58.09375 
Q 40.796875 56.09375 42 53.296875 
Q 43.203125 50.5 43.203125 47.203125 
Q 43.203125 44.296875 42.140625 41.5 
Q 41.09375 38.703125 39.046875 36.59375 
Q 37 34.5 34 33.40625 
Q 36.59375 32.5 38.75 30.890625 
Q 40.90625 29.296875 42.453125 27.140625 
Q 44 25 44.84375 22.546875 
Q 45.703125 20.09375 45.703125 17.5 
Q 45.703125 13.59375 44.296875 10.34375 
Q 42.90625 7.09375 40.046875 4.796875 
Q 37.203125 2.5 32.796875 1.25 
Q 28.40625 0 22.40625 0 
z
M 11.703125 6.09375 
L 23.59375 6.09375 
Q 28 6.09375 31.296875 7.25 
Q 34.59375 8.40625 36.4375 11 
Q 38.296875 13.59375 38.296875 17.90625 
Q 38.296875 21.59375 36.6875 24.4375 
Q 35.09375 27.296875 31.546875 28.9375 
Q 28 30.59375 21.90625 30.59375 
L 11.703125 30.59375 
z
M 11.703125 36.5 
L 21.5 36.5 
Q 27 36.5 30.203125 37.796875 
Q 33.40625 39.09375 34.796875 41.34375 
Q 36.203125 43.59375 36.203125 46.40625 
Q 36.203125 48.5 35.453125 50.296875 
Q 34.703125 52.09375 33.09375 53.4375 
Q 31.5 54.796875 28.890625 55.59375 
Q 26.296875 56.40625 22.59375 56.40625 
L 11.703125 56.40625 
z
" id="Inconsolata-Regular-66"/>
   </defs>
   <g transform="translate(121.070312 16.51)scale(0.14 -0.14)">
    <use xlink:href="#Inconsolata-Regular-82"/>
    <use x="49.999985" xlink:href="#Inconsolata-Regular-101"/>
    <use x="99.999969" xlink:href="#Inconsolata-Regular-122"/>
    <use x="149.999954" xlink:href="#Inconsolata-Regular-101"/>
    <use x="199.999939" xlink:href="#Inconsolata-Regular-112"/>
    <use x="249.999924" xlink:href="#Inconsolata-Regular-116"/>
    <use x="299.999908" xlink:href="#Inconsolata-Regular-103"/>
    <use x="349.999893" xlink:href="#Inconsolata-Regular-101"/>
    <use x="399.999878" xlink:href="#Inconsolata-Regular-119"/>
    <use x="449.999863" xlink:href="#Inconsolata-Regular-105"/>
    <use x="499.999847" xlink:href="#Inconsolata-Regular-99"/>
    <use x="549.999832" xlink:href="#Inconsolata-Regular-104"/>
    <use x="599.999817" xlink:href="#Inconsolata-Regular-116"/>
    <use x="649.999802" xlink:href="#Inconsolata-Regular-32"/>
    <use x="699.999786" xlink:href="#Inconsolata-Regular-66"/>
    <use x="749.999771" xlink:href="#Inconsolata-Regular-101"/>
    <use x="799.999756" xlink:href="#Inconsolata-Regular-114"/>
    <use x="849.999741" xlink:href="#Inconsolata-Regular-101"/>
    <use x="899.999725" xlink:href="#Inconsolata-Regular-105"/>
    <use x="949.99971" xlink:href="#Inconsolata-Regular-110"/>
    <use x="999.999695" xlink:href="#Inconsolata-Regular-105"/>
    <use x="1049.99968" xlink:href="#Inconsolata-Regular-103"/>
    <use x="1099.999664" xlink:href="#Inconsolata-Regular-117"/>
    <use x="1149.999649" xlink:href="#Inconsolata-Regular-110"/>
    <use x="1199.999634" xlink:href="#Inconsolata-Regular-103"/>
   </g>
  </g>
 </g>
 <defs>
  <clipPath id="pc761920f66">
   <rect height="217.44" width="334.8" x="46.570313" y="36"/>
  </clipPath>
 </defs>
</svg>
